<svg width="566" height="378" viewBox="0 0 566 378" fill="none" xmlns="http://www.w3.org/2000/svg">
<path d="M138.658 8.60356C140.141 11.589 143.537 12.731 152.778 13.0539C157.011 13.1845 160.766 13.8504 161.122 14.5669C161.597 15.2241 163.734 18.9268 165.691 22.8675C167.768 26.749 170.915 31.8854 172.697 34.2754C177.985 41.3257 176.966 43.1715 167.185 44.159C137.72 47.1808 124.061 48.7542 116.842 50.1064C112.308 50.8694 106.104 51.8665 103.062 52.3354C92.4443 53.7381 53.3655 61.9815 30.9304 67.4669C18.4598 70.5342 0.968938 77.8814 0.843936 80.0277C0.536221 83.6046 4.28786 85.4631 11.9209 85.245C20.7465 85.0301 23.4827 87.5419 22.0931 94.3358C20.342 102.5 23.5559 104.775 33.8169 102.954C38.3507 102.191 40.2582 102.434 41.5053 104.346C42.8125 106.078 42.5712 107.092 40.8994 107.922C38.5111 109.108 36.4097 114.469 37.5366 116.738C38.4856 118.649 46.1146 119.921 50.4705 118.8C55.244 117.62 55.6006 118.038 53.9168 123.341C52.2322 128.942 56.2171 132.768 63.9087 132.968C70.4077 133.164 71.121 134.001 69.4372 139.303C68.4138 142.938 68.4723 143.355 71.6276 145.212C73.4734 146.231 77.4062 147.255 80.2682 147.323C83.2496 147.331 85.6323 148.231 85.8086 149.186C85.9818 151.333 93.247 154.87 95.3965 153.803C96.2324 153.388 99.1537 153.574 101.835 154.178C108.748 155.806 132.122 156.107 140.414 154.52C144.411 153.874 148.586 153.588 149.598 154.127C150.73 154.607 154.177 158.85 157.444 163.629C160.71 168.408 164.395 173.128 165.704 173.967C166.895 174.864 168.678 176.956 169.508 178.628C170.338 180.3 171.587 181.615 172.362 181.677C173.137 181.738 175.693 184.786 178.009 188.251C180.265 191.894 184.308 196.437 186.807 198.471C189.306 200.505 194.18 206.123 197.626 210.962C200.952 215.861 204.578 220.164 205.59 220.703C208.687 222.142 214.155 228.955 217.893 235.882L221.274 242.39L231.961 237.529C237.752 234.802 242.765 233.205 243.121 233.922C243.417 234.519 243.526 238.634 243.216 243.105C243.022 248.709 243.607 252.885 245.386 256.468C247.64 261.005 247.577 262.377 244.755 269.286C240.074 280.841 237.888 295.325 240.201 299.983C243.107 305.834 241.303 311.494 235.211 315.413C228.7 319.689 211.58 344.27 211.686 349.279C211.621 351.246 212.029 354.766 212.38 357.271C213.085 361.387 213.263 361.447 219.346 361.106C222.806 360.877 225.906 361.123 226.143 361.601C226.38 362.079 226.373 364.762 226.127 367.564C225.881 370.366 226.348 374.004 227.119 375.557C228.365 378.065 228.841 378.125 232.247 375.69C234.218 374.264 237.686 370.755 239.9 368.018C245.584 360.58 246.598 360.523 248.55 366.551C250.206 371.683 250.206 371.683 253.908 369.844C255.938 368.836 261.437 363.723 265.983 358.488C270.529 353.253 277.048 345.995 280.456 342.367C290.324 331.66 291.344 329.218 291.193 318.723C291.088 313.416 290.983 308.109 290.986 306.916C291.11 305.366 295.41 302.635 309.98 295.101C331.117 284.305 327.95 286.92 359.581 254.09C375.188 237.853 389.008 220.717 397.93 206.609C405.475 194.822 411.994 187.565 423.885 178.235C437.569 167.42 441.757 162.362 446.859 149.854C449.139 144.553 452.017 138.359 453.276 136.097C454.653 133.775 458.907 126.154 462.862 119.128C466.816 112.103 472.503 103.77 475.433 100.677C486.018 89.3164 503.825 75.1127 522.88 62.8206C526.284 60.6831 535.127 53.9091 542.418 47.9061C549.769 41.7244 557.954 35.7238 560.581 34.419C564.283 32.5804 565.539 31.2123 565.545 28.8272C565.674 25.4883 562.52 23.0351 559.654 24.4585C554.997 26.7716 539.013 27.8617 527.985 26.6396L515.407 25.2941L504.956 31.2291C493.311 37.757 488.349 42.7526 479.009 56.9192C475.776 61.8001 469.613 69.4757 465.07 73.8165C456.819 82.0828 451.255 88.8656 441.499 102.793C436.65 109.816 434.14 111.956 422.731 119.259C406.962 129.473 403.142 130.775 389.667 130.62C369.155 130.386 357.18 126.359 341.351 114.271C325.225 101.885 319.103 94.6536 311.275 78.5926C304.573 65.0986 298.543 45.4646 298.623 38.1305C298.756 33.0027 296.324 28.1067 292.099 24.9947C287.695 21.8226 269.224 16.4066 258.196 15.1845C253.308 14.6347 243.773 12.5222 236.921 10.4169C229.95 8.37085 221.011 6.55805 216.957 6.18943C212.843 5.99953 206.465 5.14766 202.83 4.42239C199.194 3.69712 190.611 2.60084 183.814 2.10562C177.018 1.6104 169.03 0.813841 166.109 0.328996C163.189 -0.15585 158 0.486179 154.538 1.60986C150.957 2.79285 147.676 3.38036 146.902 3.02052C146.247 2.60137 143.86 3.19128 141.591 4.31815C138.367 5.9195 137.768 6.81232 138.658 8.60356Z" fill="#E4C13B"/>
</svg>
